<svg width="19" height="19" viewBox="0 0 19 19" fill="none" xmlns="http://www.w3.org/2000/svg">
<path d="M17.7452 0.328538C17.3547 -0.0619863 16.7215 -0.0619867 16.331 0.328538L9.03664 7.62291L1.74226 0.32854C1.35174 -0.0619848 0.718574 -0.0619848 0.328049 0.32854C-0.0624745 0.719063 -0.062475 1.35223 0.328049 1.74275L7.62242 9.03713L0.32807 16.3315C-0.062454 16.722 -0.062454 17.3552 0.32807 17.7457C0.718595 18.1362 1.35176 18.1362 1.74228 17.7457L9.03664 10.4513L16.331 17.7457C16.7215 18.1362 17.3547 18.1362 17.7452 17.7457C18.1357 17.3552 18.1357 16.722 17.7452 16.3315L10.4509 9.03713L17.7452 1.74275C18.1357 1.35223 18.1357 0.719062 17.7452 0.328538Z" fill="#899088"/>
</svg>
