<svg width="798" height="323" viewBox="0 0 798 323" fill="none" xmlns="http://www.w3.org/2000/svg">
<path d="M158.4 316V240.8H2.83122e-07V226.8L176 8.8H183.6V221.2H230V240.8H183.6V316H158.4ZM158.4 221.2V52L23.6 221.2H158.4ZM257.406 161.6C257.406 115.733 270.74 77.4667 297.406 46.8C324.073 16.1333 358.34 0.799981 400.206 0.799981C442.34 0.799981 476.74 16.1333 503.406 46.8C530.34 77.2 543.806 115.467 543.806 161.6C543.806 208.267 530.34 246.8 503.406 277.2C476.74 307.6 442.34 322.8 400.206 322.8C358.34 322.8 324.073 307.6 297.406 277.2C270.74 246.533 257.406 208 257.406 161.6ZM291.406 161.2C291.406 206.267 299.806 243.067 316.606 271.6C333.406 300.133 361.273 314.4 400.206 314.4C439.406 314.4 467.406 300.267 484.206 272C501.273 243.467 509.806 206.667 509.806 161.6C509.806 116.8 501.273 80.2667 484.206 52C467.406 23.4667 439.406 9.19999 400.206 9.19999C361.273 9.19999 333.406 23.4667 316.606 52C299.806 80.5333 291.406 116.933 291.406 161.2ZM726.369 316V240.8H567.969V226.8L743.969 8.8H751.569V221.2H797.969V240.8H751.569V316H726.369ZM726.369 221.2V52L591.569 221.2H726.369Z" fill="#5E6C5B"/>
</svg>
