<svg width="810" height="487" viewBox="0 0 810 487" fill="none" xmlns="http://www.w3.org/2000/svg">
<path d="M162.4 390V314.8H4V300.8L180 82.8H187.6V295.2H234V314.8H187.6V390H162.4ZM162.4 295.2V126L27.6 295.2H162.4ZM261.406 235.6C261.406 189.733 274.74 151.467 301.406 120.8C328.073 90.1333 362.34 74.8 404.206 74.8C446.34 74.8 480.74 90.1333 507.406 120.8C534.34 151.2 547.806 189.467 547.806 235.6C547.806 282.267 534.34 320.8 507.406 351.2C480.74 381.6 446.34 396.8 404.206 396.8C362.34 396.8 328.073 381.6 301.406 351.2C274.74 320.533 261.406 282 261.406 235.6ZM295.406 235.2C295.406 280.267 303.806 317.067 320.606 345.6C337.406 374.133 365.273 388.4 404.206 388.4C443.406 388.4 471.406 374.267 488.206 346C505.273 317.467 513.806 280.667 513.806 235.6C513.806 190.8 505.273 154.267 488.206 126C471.406 97.4667 443.406 83.2 404.206 83.2C365.273 83.2 337.406 97.4667 320.606 126C303.806 154.533 295.406 190.933 295.406 235.2ZM730.369 390V314.8H571.969V300.8L747.969 82.8H755.569V295.2H801.969V314.8H755.569V390H730.369ZM730.369 295.2V126L595.569 295.2H730.369Z" fill="#5E6C5B"/>
<path d="M336.807 216H355.887V216.8H337.647V229.64H353.567V230.36H337.647V243.2H355.887V244H336.807V216ZM363.487 244V216H375.567C381.327 216 384.607 219.48 384.607 224.28C384.607 228.4 382.207 232.16 376.487 232.6L384.807 244H383.727L375.487 232.64H364.327V244H363.487ZM375.087 216.8H364.327V231.84H375.087C380.967 231.84 383.767 228.72 383.767 224.28C383.767 219.52 380.607 216.8 375.087 216.8ZM391.416 244V216H403.496C409.256 216 412.536 219.48 412.536 224.28C412.536 228.4 410.136 232.16 404.416 232.6L412.736 244H411.656L403.416 232.64H392.256V244H391.416ZM403.016 216.8H392.256V231.84H403.016C408.896 231.84 411.696 228.72 411.696 224.28C411.696 219.52 408.536 216.8 403.016 216.8ZM432.306 244.44C424.306 244.44 417.746 237.96 417.746 229.92C417.746 221.76 424.386 215.6 432.306 215.56C440.306 215.56 446.866 221.84 446.866 229.92C446.866 238.08 440.226 244.44 432.306 244.44ZM418.586 229.92C418.586 237.24 424.746 243.64 432.306 243.64C439.906 243.64 446.026 237.24 446.026 229.92C446.026 222.56 439.866 216.36 432.306 216.36C424.746 216.36 418.586 222.6 418.586 229.92ZM454.463 244V216H466.543C472.303 216 475.583 219.48 475.583 224.28C475.583 228.4 473.183 232.16 467.463 232.6L475.783 244H474.703L466.463 232.64H455.303V244H454.463ZM466.063 216.8H455.303V231.84H466.063C471.943 231.84 474.743 228.72 474.743 224.28C474.743 219.52 471.583 216.8 466.063 216.8Z" fill="#5E6C5B"/>
</svg>
