<svg width="223" height="90" viewBox="0 0 223 90" fill="none" xmlns="http://www.w3.org/2000/svg">
<path d="M222.982 0L223 88.8828L0 89.2V0H222.982ZM220.217 2.20247H2.76423V86.9975H220.217V2.20247Z" fill="#899088"/>
<path d="M197.766 57.0887C194.587 60.2522 190.377 61.8339 185.135 61.8339C179.893 61.8339 175.69 60.2522 172.527 57.0887C169.364 53.91 167.782 49.715 167.782 44.5037C167.782 41.0499 168.492 38.0087 169.914 35.3802C171.35 32.7516 173.383 30.719 176.011 29.2825C178.64 27.846 181.681 27.1277 185.135 27.1277C188.589 27.1277 191.63 27.846 194.258 29.2825C196.902 30.7038 198.943 32.7363 200.379 35.3802C201.831 38.0087 202.557 41.0499 202.557 44.5037C202.557 49.715 200.96 53.91 197.766 57.0887ZM175.576 44.5037C175.576 47.7436 176.447 50.3416 178.189 52.2977C179.931 54.2386 182.247 55.209 185.135 55.209C188.023 55.209 190.346 54.2386 192.104 52.2977C193.876 50.3416 194.763 47.7436 194.763 44.5037C194.763 41.2486 193.884 38.6429 192.127 36.6868C190.369 34.7307 188.039 33.7526 185.135 33.7526C182.247 33.7526 179.931 34.7307 178.189 36.6868C176.447 38.6429 175.576 41.2486 175.576 44.5037Z" fill="#899088"/>
<path d="M138.233 61.0316V27.93H152.446C156.205 27.93 159.117 28.7705 161.18 30.4516C163.243 32.1327 164.275 34.4556 164.275 37.4203C164.275 40.0336 163.442 42.1579 161.776 43.7931C160.125 45.413 157.772 46.3987 154.715 46.7502L166.59 61.0316H157.627L145.546 45.6728V61.0316H138.233ZM145.546 40.9964H152.171C153.745 40.9964 154.96 40.6984 155.816 40.1024C156.672 39.4911 157.099 38.5971 157.099 37.4203C157.099 36.2283 156.672 35.319 155.816 34.6924C154.96 34.0659 153.745 33.7526 152.171 33.7526H145.546V40.9964Z" fill="#899088"/>
<path d="M103.55 61.0316L113.224 27.93H125.305L135.024 61.0316H127.413L124.64 50.9911H113.889L111.115 61.0316H103.55ZM115.539 45.0768H122.989L119.299 31.5061L115.539 45.0768Z" fill="#899088"/>
<path d="M78.5864 61.0316V27.93H92.799C96.5584 27.93 99.4697 28.8087 101.533 30.5662C103.596 32.3084 104.628 34.7154 104.628 37.7871C104.628 40.8436 103.588 43.2506 101.51 45.008C99.4468 46.7655 96.5432 47.6442 92.799 47.6442H85.899V61.0316H78.5864ZM85.899 41.73H92.5239C94.098 41.73 95.3129 41.4014 96.1687 40.7443C97.0246 40.0718 97.4525 39.0861 97.4525 37.7871C97.4525 36.4881 97.0246 35.5101 96.1687 34.8529C95.3129 34.1805 94.098 33.8443 92.5239 33.8443H85.899V41.73Z" fill="#899088"/>
<path d="M53.0496 61.0316V27.93H74.4143V34.1881H60.3622V40.2399H71.2967V46.4751H60.3622V54.7964H74.506V61.0316H53.0496Z" fill="#899088"/>
<path d="M21.5068 61.0316V27.93H35.7194C39.4789 27.93 42.3902 28.7705 44.4533 30.4516C46.5164 32.1327 47.548 34.4556 47.548 37.4203C47.548 40.0336 46.7151 42.1579 45.0493 43.7931C43.3988 45.413 41.0453 46.3987 37.9888 46.7502L49.8632 61.0316H40.9001L28.8194 45.6728V61.0316H21.5068ZM28.8194 40.9964H35.4443C37.0184 40.9964 38.2334 40.6984 39.0892 40.1024C39.945 39.4911 40.3729 38.5971 40.3729 37.4203C40.3729 36.2283 39.945 35.319 39.0892 34.6924C38.2334 34.0659 37.0184 33.7526 35.4443 33.7526H28.8194V40.9964Z" fill="#899088"/>
</svg>
