<svg width="93" height="93" viewBox="0 0 93 93" fill="none" xmlns="http://www.w3.org/2000/svg">
<path d="M93 93H0V0H92.8274L93 0.172649V93ZM91.2735 1.84158H1.72649V91.2735H91.2735V1.84158Z" fill="#5E6C5B"/>
<path d="M9.89851 8.74753C15.4428 8.72451 20.9906 8.77515 26.5361 8.75328C33.3971 8.72566 42.5717 7.19484 47.5946 13.005C54.3279 20.7938 49.6457 31.8122 39.9394 33.5514L44.198 39.7667C47.5969 40.0015 51.0971 39.5492 54.4649 40.089C65.9345 41.9237 67.9993 57.2802 58.2746 62.9373C56.9475 63.7096 55.8219 64.0204 54.3774 64.4531C54.2485 64.4923 54.1737 64.3772 54.2128 64.6269L65.6053 83.4479H57.0304L45.6356 64.8019H34.2984V83.4479H27.0471V39.8254H35.3342L31.5935 34.0705H17.2637V52.9467H9.89736V8.74753H9.89851ZM17.2649 27.2785L36.4334 27.2831C40.3549 27.0494 43.4591 25.2424 43.1667 20.8847C42.9009 16.9173 38.9863 15.3784 35.5126 15.1873L17.2649 15.1919V27.2785ZM34.2995 58.2401L50.1302 58.2447C58.0997 58.6165 59.9113 47.0985 51.5057 46.5012L34.2995 46.3849V58.2401Z" fill="#5E6C5B"/>
<path d="M66.1819 55.9381V49.6077C69.9307 48.9884 73.4838 46.1259 73.8798 42.17C74.5001 35.9776 70.5465 32.4338 64.6327 32.108C60.6572 31.8893 56.4802 32.2818 52.4851 32.1126V25.4369C57.4735 25.7039 62.9143 24.9742 67.8348 25.6832C76.8205 26.9781 81.8872 34.2938 80.7857 43.2047C79.8396 50.8553 73.546 55.3626 66.1819 55.937V55.9381Z" fill="#5E6C5B"/>
</svg>
