<svg width="26" height="29" viewBox="0 0 26 29" fill="none" xmlns="http://www.w3.org/2000/svg">
<path d="M24.0569 11.1112L5.80118 0.526475C5.205 0.176335 4.5292 -0.0052758 3.84255 0.00011668C3.15589 0.00550916 2.48288 0.197713 1.89196 0.557175C1.31627 0.895546 0.837979 1.38448 0.50568 1.97432C0.173382 2.56415 -0.00108453 3.23386 5.07259e-06 3.91542V25.0848C-0.00108453 25.7664 0.173382 26.4361 0.50568 27.026C0.837979 27.6158 1.31627 28.1047 1.89196 28.4431C2.48293 28.8024 3.15593 28.9945 3.84255 28.9999C4.52917 29.0053 5.20494 28.8238 5.80118 28.4738L24.0569 17.8891C24.6457 17.5539 25.1364 17.0628 25.4781 16.4669C25.8198 15.8709 26 15.1918 26 14.5001C26 13.8084 25.8198 13.1293 25.4781 12.5334C25.1364 11.9374 24.6457 11.4464 24.0569 11.1112Z" fill="#FEFCF6"/>
</svg>
