<svg width="50" height="50" viewBox="0 0 50 50" fill="none" xmlns="http://www.w3.org/2000/svg">
<path d="M34.3558 39.1349C34.3558 39.7139 33.8787 40.1907 33.2993 40.1907C32.7198 40.1907 32.2427 39.7139 32.2427 39.1349C32.2427 38.5559 32.7198 38.079 33.2993 38.079C33.8787 38.079 34.3558 38.5559 34.3558 39.1349ZM34.3558 32.2888V34.9796C34.3558 35.5586 33.8787 36.0354 33.2993 36.0354C32.7198 36.0354 32.2427 35.5586 32.2427 34.9796V33.3447H2.07907V44.7888C2.07907 46.4918 3.47648 47.8883 5.21472 47.9223H29.1752C30.8793 47.9223 32.3108 46.5259 32.3108 44.7888V43.2902C32.3108 42.7112 32.788 42.2343 33.3674 42.2343C33.9468 42.2343 34.424 42.7112 34.424 43.2902V44.7888C34.424 45.9809 34.015 47.1049 33.3333 47.9905C33.0607 48.3311 32.7539 48.6376 32.4131 48.9101C31.5269 49.5913 30.4363 50 29.2093 50H5.21472C4.02181 50 2.89707 49.5913 2.01091 48.876C1.67007 48.6035 1.36333 48.297 1.09066 47.9564C0.408998 47.1049 0 46.015 0 44.7888V28.1676C0 27.5886 0.477164 27.1117 1.05658 27.1117H3.51057C4.29448 24.8978 6.30539 23.2629 8.69121 22.9905C9.23654 21.9005 10.7021 19.8229 13.5651 19.8229H17.6551C21.0975 19.8229 21.9836 18.3583 22.0177 18.2902C22.1541 18.0518 22.3926 17.8474 22.6653 17.7793C22.938 17.7112 23.2447 17.7452 23.4833 17.8815C25.7669 19.2779 26.5849 21.3215 26.9598 22.9905C29.2774 23.3311 31.1861 24.9319 31.97 27.0777H33.3674C33.9468 27.0777 34.424 27.5545 34.424 28.1335V32.2888H34.3558ZM5.76006 27.1117H29.6183C28.9025 25.8856 27.5392 25.0341 26.0055 25.0341H23.9264C23.347 25.0341 22.8698 24.5572 22.8698 23.9782C22.8698 23.3992 23.347 22.9223 23.9264 22.9223H24.7444C24.4035 21.7302 23.8923 20.8447 23.0743 20.1635C22.2563 20.9469 20.6203 21.8665 17.621 21.8665H13.531C12.4744 21.8665 11.7246 22.3774 11.2134 22.9223H11.4519C12.0314 22.9223 12.5085 23.3992 12.5085 23.9782C12.5085 24.5572 12.0314 25.0341 11.4519 25.0341H9.37287C7.83913 25.0341 6.50988 25.8856 5.76006 27.1117ZM2.07907 29.1894V31.267H32.2768V29.1894H2.07907ZM17.7232 41.6213C15.985 41.6213 14.5876 40.2248 14.5876 38.4877C14.5876 36.7507 15.985 35.3542 17.7232 35.3542C19.4615 35.3542 20.8589 36.7507 20.8589 38.4877C20.8589 40.2248 19.4615 41.6213 17.7232 41.6213ZM16.6667 38.4877C16.6667 39.0668 17.1438 39.5436 17.7232 39.5436C18.3027 39.5436 18.7798 39.0668 18.7798 38.4877C18.7798 37.9087 18.3027 37.4319 17.7232 37.4319C17.1438 37.4319 16.6667 37.9087 16.6667 38.4877ZM11.486 44.7207C11.486 45.2997 11.9632 45.7766 12.5426 45.7766H22.938C23.5174 45.7766 23.9945 45.2997 23.9945 44.7207C23.9945 44.1417 23.5174 43.6648 22.938 43.6648H12.5426C11.9632 43.6648 11.486 44.1417 11.486 44.7207ZM49.0798 14.5436L50 22.752C50 23.0586 49.9318 23.3311 49.7273 23.5695C49.5228 23.7738 49.2502 23.9101 48.9434 23.9101H34.3558C34.0491 23.9101 33.7764 23.7738 33.5719 23.5695C33.3674 23.3651 33.2652 23.0586 33.2993 22.752L34.2195 14.5436C33.7082 14.4755 33.2993 14.0327 33.2993 13.5218V10.3883C33.2993 9.23024 34.2195 8.31063 35.3783 8.31063H37.4574V3.13351C37.4574 1.39646 38.8548 0 40.593 0H42.6721C44.4104 0 45.8078 1.39646 45.8078 3.13351V8.34469H47.8868C49.0457 8.34469 49.9659 9.2643 49.9659 10.4223V13.5559C49.9659 14.1008 49.5569 14.5095 49.0457 14.5777L49.0798 14.5436ZM39.5706 8.31063H43.7287V3.13351C43.7287 2.5545 43.2515 2.07766 42.6721 2.07766H40.593C40.0136 2.07766 39.5365 2.5545 39.5365 3.13351V8.34469L39.5706 8.31063ZM35.4124 10.3883V12.4659H47.9209V10.3883H35.4124ZM46.9666 14.5777H44.7853V18.733C44.7853 19.312 44.3081 19.7888 43.7287 19.7888C43.1493 19.7888 42.6721 19.312 42.6721 18.733V14.5777H40.593V18.733C40.593 19.312 40.1159 19.7888 39.5365 19.7888C38.9571 19.7888 38.4799 19.312 38.4799 18.733V14.5777H36.2986L35.4806 21.8665H47.7164L46.8984 14.5777H46.9666Z" fill="#B0B8AF"/>
</svg>
