<svg width="70" height="50" viewBox="0 0 70 50" fill="none" xmlns="http://www.w3.org/2000/svg">
<path d="M69.2843 38.1241C68.9502 35.3946 68.3299 32.4735 67.7573 29.6481C67.5187 28.5467 67.2802 27.3975 67.0416 26.2482C66.6121 24.1891 66.4213 21.9384 66.4213 19.4962C66.4213 17.0539 66.6599 14.5638 67.0416 12.3131C67.0416 12.2653 67.0416 12.2174 67.0416 12.2174C67.1847 11.4991 66.803 10.8287 66.135 10.5413C65.3715 10.254 58.2618 7.52447 52.1063 6.18365C51.3429 5.9921 50.5317 6.51885 50.3408 7.28504C50.1977 8.05123 50.6748 8.81742 51.4383 9.00896C52.5835 9.2484 53.7764 9.5836 54.9216 9.91881C53.7287 13.1272 51.2952 20.7891 52.4881 26.8228C53.4424 31.6594 54.015 35.4424 54.3013 37.4537C54.3013 37.4537 53.9196 37.4537 53.7287 37.4537C50.818 37.6452 47.8119 37.8847 44.9966 38.2199C44.9489 38.2199 44.8534 38.2199 44.758 38.2199C42.7062 38.4593 40.5112 38.5551 38.03 38.5551H37.8868C31.1588 38.5551 24.5262 37.6452 22.045 36.7833C18.1322 35.4424 13.3129 32.3777 9.3047 29.5524L10.4976 23.9975C11.9291 24.1412 13.5515 24.4285 15.5078 24.7637C17.2733 25.051 19.2774 25.4341 21.5201 25.7214C22.4267 25.8172 23.2856 25.913 24.1922 25.913C26.7689 25.913 29.0116 25.3862 30.968 24.5243C30.968 24.5243 30.968 24.5722 31.0157 24.62L33.9264 27.5411C34.2127 27.8284 34.5944 27.9721 34.9761 27.9721C35.3579 27.9721 35.7396 27.8284 36.0259 27.5411C36.5985 26.9665 36.5985 26.0566 36.0259 25.482L33.6401 23.0877C34.6421 22.4172 35.5487 21.6511 36.3599 20.8849L40.4158 22.082C40.4158 22.082 40.7021 22.1299 40.8453 22.1299C41.4656 22.1299 42.0382 21.6989 42.229 21.0764C42.4676 20.3102 42.0382 19.4962 41.227 19.2567L38.4594 18.4426C40.2249 16.192 41.561 13.7976 42.6585 11.8822C42.8016 11.5948 42.9448 11.3554 43.0879 11.116C43.4697 10.3977 43.2311 9.53572 42.5153 9.15262C41.8473 8.76953 40.9407 9.00896 40.559 9.67938L40.2727 10.1104C38.9366 12.5526 37.2188 15.5694 34.9284 18.0596C34.8807 18.1553 34.7853 18.2032 34.7376 18.2511C32.1609 20.9328 28.8207 22.9919 24.2877 22.9919H24.1922C23.4765 22.9919 22.713 22.9919 21.9018 22.8482C19.8023 22.5609 17.8459 22.2257 16.1282 21.9384C14.3149 21.6032 12.6926 21.3159 11.1656 21.1722L13.0743 12.2174C13.2652 11.4512 12.7403 10.6371 11.9768 10.4935C11.1656 10.3019 10.4022 10.8287 10.259 11.5948L8.25494 21.0285C5.39196 21.1722 3.10157 22.4172 1.62236 24.7158C1.62236 24.8116 1.52693 24.8595 1.43149 25.0031C1.38378 25.0989 1.33606 25.1468 1.24063 25.2426C0.763463 25.8651 0.906612 26.7749 1.52693 27.2538C3.14928 28.5467 4.67621 29.696 6.15542 30.7974L5.86912 32.0425C5.67826 32.8087 6.20314 33.6227 6.9666 33.7664C7.06203 33.7664 7.15746 33.7664 7.2529 33.7664C7.92093 33.7664 8.54124 33.2875 8.68439 32.6171C13.5515 36.0171 17.7505 38.3156 21.1384 39.5128C22.7607 40.0396 25.1466 40.5184 27.9141 40.8536C26.7212 40.9973 25.6714 41.0931 24.7648 41.0931C18.2754 41.0931 8.44581 37.9325 3.197 36.0171C2.81527 35.8734 2.43354 35.9213 2.05181 36.065C1.71779 36.2565 1.43149 36.5438 1.28834 36.9269C0.0954329 40.8536 0 42.3381 0 42.6254C0 43.1522 0.286299 43.6311 0.715746 43.9184C1.14519 44.1578 11.4042 49.9521 24.7648 49.9521C34.7853 49.9521 43.0879 48.2761 46.6189 47.462V48.5155C46.6189 49.3296 47.287 50 48.0982 50H68.5208C68.9025 50 69.2842 49.8563 69.5705 49.569C69.8568 49.2817 70 48.8986 70 48.5155C70 48.324 70 43.9663 69.332 38.172L69.2843 38.1241ZM3.62645 39.3691C10.1636 41.6198 18.6094 44.1099 24.7648 44.1099C27.3415 44.1099 30.8248 43.4874 34.8807 42.7691C38.0777 42.1945 41.7042 41.5719 45.3306 41.141C48.0504 40.8536 51.0089 40.5663 53.8718 40.3748C53.9673 40.3748 54.0627 40.3748 54.2059 40.3748C54.5399 40.3748 54.8739 40.3748 55.2079 40.3269C55.3988 40.3269 55.5896 40.3269 55.7805 40.3269C56.0668 40.3269 56.3531 40.3269 56.6394 40.279C56.878 40.279 57.0688 40.279 57.3074 40.279C57.5937 40.279 57.88 40.279 58.1663 40.2311C58.3095 40.2311 58.5003 40.2311 58.6435 40.2311C58.9775 40.2311 59.3592 40.2311 59.6933 40.1832C59.6933 40.1832 59.6933 40.1832 59.741 40.1832C62.4131 40.0396 64.7512 39.9438 66.469 39.8959C66.803 43.0085 66.8984 45.5944 66.9461 47.1268H49.4819V45.6423C49.4819 45.1634 49.2434 44.7325 48.9093 44.493C48.5276 44.2057 48.0504 44.1099 47.621 44.2536C47.5256 44.2536 37.4574 47.1268 24.7171 47.1268C14.2672 47.1268 5.67825 43.248 2.95842 41.9071C3.05385 41.3804 3.24472 40.5663 3.57873 39.4649L3.62645 39.3691ZM63.94 12.8399C63.7014 14.3244 63.4628 16.6708 63.4628 19.4962C63.4628 22.082 63.7014 24.5722 64.1309 26.8228C64.3695 27.9721 64.608 29.1693 64.8466 30.3186C65.3238 32.6171 65.8009 34.8199 66.135 36.879C65.3238 36.879 64.3695 36.9269 63.3197 36.9748C61.5065 37.0227 59.4547 37.1185 57.212 37.2621C56.9257 35.2988 56.3531 31.3721 55.3511 26.2482C54.3013 20.837 56.6871 13.5582 57.7369 10.7329C60.2181 11.4991 62.4608 12.3131 63.9877 12.8399H63.94ZM7.58691 24.0454L6.82345 27.6848C5.96455 27.0144 5.15337 26.3918 4.43763 25.8651C5.34424 24.6679 6.29857 24.2369 7.58691 24.0454ZM44.5194 7.04561C44.5194 7.04561 44.5194 6.94983 44.5194 6.85406C44.5194 6.47097 44.6149 6.08787 44.9012 5.80055C45.1397 5.51323 45.5215 5.36957 45.9032 5.32169H45.9986C46.7621 5.32169 47.4301 5.94421 47.4301 6.7104C47.4301 6.7104 47.4301 6.75829 47.4301 6.80617C47.4301 7.14138 47.287 7.47659 47.0484 7.76391C46.8098 8.05123 46.4281 8.19489 46.0463 8.24278H45.9986C45.2352 8.24278 44.6626 7.71602 44.5671 6.99772L44.5194 7.04561ZM11.8814 6.75829C12.0723 6.42308 16.8916 -1.47823 23.6673 0.245692C27.5324 1.20343 28.0095 4.31606 28.3913 6.56674C28.773 8.91319 29.0593 10.0146 30.968 10.4935C31.7314 10.685 32.2086 11.4991 32.0177 12.2653C31.8746 12.9357 31.2543 13.3667 30.5862 13.3667C30.4908 13.3667 30.3476 13.3667 30.2522 13.3667C26.3872 12.4089 25.91 9.29628 25.5283 7.04561C25.1466 4.69916 24.8603 3.59776 22.9516 3.1189C18.2277 1.92173 14.4104 8.24278 14.3626 8.29066C13.9332 8.96108 13.0743 9.20051 12.3586 8.76953C11.6905 8.33855 11.4519 7.47659 11.8814 6.75829Z" fill="#B0B8AF"/>
</svg>
