<svg width="62" height="50" viewBox="0 0 62 50" fill="none" xmlns="http://www.w3.org/2000/svg">
<path d="M61.3791 39.918C61.0893 37.6229 60.5512 35.123 60.0544 32.7049C59.8474 31.7213 59.6405 30.7377 59.4335 29.7541C59.0609 27.9918 58.8953 26.0246 58.8953 23.9754C58.8953 21.9262 59.1023 19.7541 59.4335 17.8279C59.4335 17.7869 59.4335 17.7459 59.4335 17.7459C59.5577 17.1311 59.2265 16.5574 58.647 16.3115C58.647 16.3115 58.6056 16.3115 58.5228 16.3115C56.7842 15.6557 51.6511 13.8115 47.0149 12.7049C47.0149 12.6229 47.0149 12.582 47.0149 12.5C47.0149 12.1721 46.9321 11.8033 46.6837 11.5574L39.9776 4.46721L37.5767 1.72131C36.5832 0.614754 35.2172 0 33.7269 0C32.6092 0 31.533 0.368852 30.6637 1.02459L23.2539 6.59836C22.7157 7.0082 22.5916 7.78688 23.0055 8.36066C23.4195 8.89344 24.2474 9.01639 24.7855 8.60656L32.1953 2.9918C33.2302 2.21311 34.8032 2.37705 35.6311 3.36066L37.1627 5.12295L31.9883 9.13934L26.8967 13.0738L26.3999 13.4426L23.0883 16.0246L22.2604 16.6803L20.1078 18.3607L17.0446 14.3443C17.3343 13.8525 17.2929 13.3197 17.0032 12.8689C16.5892 12.3361 15.7613 12.2131 15.2232 12.623L14.5608 13.1148C14.0227 13.5246 13.8985 14.3033 14.3125 14.877L1.52128 24.2213C0.693373 24.8361 0.155233 25.6967 0.0310466 26.7213C-0.0931397 27.7049 0.155233 28.7295 0.776164 29.5082C1.52128 30.4918 2.63896 30.9836 3.79803 30.9836C4.58454 30.9836 5.37106 30.7377 6.03338 30.2459L18.9074 20.7787L22.9227 27.623C21.3083 28.4836 19.5697 29.2213 17.7069 29.7951C15.9269 30.3279 14.2711 30.7377 12.8222 31.1066C10.7525 31.6393 8.97246 32.0902 7.44083 32.6639C4.41896 33.7705 2.68035 35.7377 2.3078 38.4426C2.3078 38.5246 2.3078 38.6066 2.225 38.7295C2.225 38.8115 2.225 38.8525 2.18361 38.9344C2.14221 39.1393 2.18361 39.3852 2.18361 39.5902C1.3143 42.377 1.27291 43.4836 1.27291 43.6885C1.27291 44.1393 1.52128 44.5492 1.89384 44.7951C2.2664 45 11.1664 49.959 22.7571 49.959C31.4502 49.959 38.653 48.5246 41.7162 47.8279V48.7295C41.7162 49.4262 42.2958 50 42.9995 50H60.7167C61.0479 50 61.3791 49.877 61.6274 49.6311C61.8758 49.3852 62 49.0574 62 48.7295C62 48.5656 62 44.8361 61.4205 39.877L61.3791 39.918ZM8.35153 35.041C9.63478 34.5492 11.3734 34.0984 13.3604 33.6066C14.8506 33.2377 16.5892 32.7869 18.452 32.2131C20.5632 31.5984 22.5088 30.7377 24.2888 29.7541C24.4543 29.877 24.6199 29.959 24.8269 30C24.9097 30 24.9925 30 25.0753 30C25.365 30 25.6548 29.918 25.8618 29.7131L28.0144 27.9918C28.0144 27.9918 28.1385 28.1967 28.2213 28.3197L30.7465 30.8197C30.9948 31.0656 31.326 31.1885 31.6572 31.1885C31.9883 31.1885 32.3195 31.0656 32.5679 30.8197C33.0646 30.3279 33.0646 29.5492 32.5679 29.0574L30.0427 26.5574C30.0427 26.5574 30.0013 26.5164 29.9599 26.4754L32.0297 24.8361C32.0297 24.8361 32.0711 24.8361 32.1125 24.8361L36.3762 26.1066C36.3762 26.1066 36.6246 26.1475 36.7488 26.1475C37.2869 26.1475 37.7837 25.7787 37.9493 25.2459C38.1562 24.5902 37.7837 23.8934 37.08 23.6885L34.3893 22.9098L44.7795 14.6721C46.1042 14.918 47.5116 15.2869 48.919 15.6557C47.8842 18.4016 45.773 24.959 46.8079 30.1229C47.6358 34.2623 48.1325 37.5 48.3809 39.2213C45.6902 39.3852 42.9167 39.6311 40.3088 39.918C39.8948 39.959 39.4809 40 39.0669 40.041C35.6311 40.4508 32.3609 40.9836 29.4218 41.4344C26.6897 41.8852 24.3302 42.2541 22.6743 42.377C22.3018 42.377 21.9706 42.418 21.6395 42.418H21.5567C19.2385 42.418 16.4236 41.7623 13.6087 40.9426C12.0771 40.4918 10.5455 40 9.09664 39.5492C7.60641 39.0574 6.19897 38.6066 4.91571 38.2377C5.37106 36.4344 6.40594 35.7377 8.35153 34.918V35.041ZM17.3757 18.8115L4.54315 28.2787C4.00501 28.6885 3.1771 28.5656 2.76314 28.0328C2.55617 27.7459 2.47338 27.418 2.51477 27.0902C2.55617 26.7623 2.72175 26.4754 3.01152 26.2705L15.8441 16.8443L15.9683 17.0082L17.3757 18.8525V18.8115ZM23.2953 19.0574L25.4892 21.9262C25.7376 22.2541 26.1102 22.418 26.4827 22.418C26.7311 22.418 27.0209 22.3361 27.2278 22.1721C27.766 21.7623 27.8902 20.9836 27.4762 20.4098L25.2409 17.5L27.2278 15.9426L29.4632 18.8934C29.7116 19.2213 30.0841 19.3852 30.4567 19.3852C30.7051 19.3852 30.9948 19.3033 31.2018 19.1393C31.7399 18.7295 31.8641 17.9508 31.4502 17.3771L29.1734 14.3852L31.1604 12.8279L33.4786 15.8197C33.7269 16.1475 34.0995 16.3115 34.472 16.3115C34.7204 16.3115 35.0102 16.2295 35.2172 16.0656C35.7553 15.6557 35.8795 14.877 35.4655 14.3033L33.1474 11.2705L35.1344 9.71311L37.4939 12.7869C37.4939 12.7869 37.7423 13.0738 37.9079 13.1557C38.0734 13.2377 38.2804 13.2787 38.4874 13.2787C38.7358 13.2787 39.0255 13.1967 39.2325 13.0328C39.7707 12.623 39.8534 11.8443 39.4395 11.3115L37.08 8.19672L38.7772 6.88525L43.6204 12.0082L43.786 12.2131L42.5855 13.1557L36.7902 17.7459L33.9339 20L25.3237 26.8443L24.9925 26.3115L21.5153 20.3279L23.2125 19.0164L23.2953 19.0574ZM56.7842 18.2787C56.5772 19.5492 56.3702 21.5574 56.3702 23.9344C56.3702 26.1885 56.5772 28.2787 56.9498 30.2049C57.1567 31.1885 57.3637 32.1721 57.5707 33.1557C57.9846 35.1639 58.3986 37.0492 58.6884 38.8115C56.7428 38.8525 54.0107 38.9754 50.9474 39.1393C50.6991 37.459 50.2023 34.0984 49.333 29.7131C48.4223 25.1229 50.4921 18.8525 51.4028 16.4344C53.6381 17.1311 55.6251 17.8279 56.8256 18.2377L56.7842 18.2787ZM4.46036 40.9426C7.02687 41.8443 10.0073 42.7459 12.9464 43.4836C15.9269 44.3443 18.9074 45 21.6395 45.041C22.0534 45.041 22.4674 45.041 22.9227 45C25.1167 45 28.0971 44.4672 31.533 43.8525C34.3065 43.3607 37.4525 42.8279 40.5986 42.459C47.0976 41.7213 54.9628 41.4344 58.9781 41.3115C59.2679 43.9754 59.3507 46.1885 59.3921 47.5H44.2414V46.2295C44.2414 45.8197 44.0344 45.4508 43.7446 45.2459C43.4135 45 42.9995 44.918 42.6269 45.041C42.5442 45.041 33.8097 47.5 22.7571 47.5C13.6915 47.5 6.24036 44.1803 3.88082 43.0328C3.96361 42.582 4.12919 41.8852 4.41896 40.9426H4.46036ZM19.0315 11.3115C18.8246 11.0656 18.7418 10.7377 18.7832 10.3689C18.8246 10.041 19.0315 9.7541 19.2799 9.54918C19.8181 9.13934 20.646 9.2623 21.0599 9.79508C21.4739 10.3279 21.3911 11.1475 20.8116 11.5574C20.6046 11.7213 20.3148 11.8033 20.025 11.8033C19.6525 11.8033 19.2799 11.5984 19.0315 11.3115Z" fill="#B0B8AF"/>
</svg>
